<?xml version="1.0" encoding="UTF-8" standalone="no"?><svg xmlns="http://www.w3.org/2000/svg" xmlns:xlink="http://www.w3.org/1999/xlink" contentStyleType="text/css" height="103px" preserveAspectRatio="none" style="width:573px;height:103px;background:#FFFFFF;" version="1.1" viewBox="0 0 573 103" width="573px" zoomAndPan="magnify"><defs/><g><!--MD5=[00f66deb750ccc651b27f150e5553eeb]
cluster ガジェット--><g id="cluster_ガジェット"><rect height="90" rx="2.5" ry="2.5" style="stroke:#181818;stroke-width:1.0;fill:none;" width="331" x="7" y="7"/><line style="stroke:#181818;stroke-width:1.0;fill:none;" x1="7" x2="338" y1="27.4883" y2="27.4883"/><text fill="#000000" font-family="sans-serif" font-size="14" font-weight="bold" lengthAdjust="spacing" textLength="70" x="137.5" y="22.5352">ガジェット</text></g><!--MD5=[f658071bddae3d0286e5f87e10984fa1]
entity KY03--><g id="elem_KY03"><rect fill="#F1F1F1" height="38.9766" rx="2.5" ry="2.5" style="stroke:#181818;stroke-width:0.5;" width="116" x="23" y="42"/><text fill="#000000" font-family="sans-serif" font-size="14" lengthAdjust="spacing" textLength="84" x="33" y="58.5352">音声センサー</text><text fill="#000000" font-family="sans-serif" font-size="14" lengthAdjust="spacing" textLength="96" x="33" y="75.0234">KKHMF KY-03</text></g><!--MD5=[2f5a22cb1e0751c6271e96d2944f1621]
entity ESP32--><g id="elem_ESP32"><rect fill="#F1F1F1" height="22.4883" rx="2.5" ry="2.5" style="stroke:#181818;stroke-width:0.5;" width="118" x="204" y="50.5"/><text fill="#000000" font-family="sans-serif" font-size="14" lengthAdjust="spacing" textLength="98" x="214" y="67.0352">ESP32開発基板</text></g><!--MD5=[39bcfecbf7c4fad82e7ae1ec2844ae93]
entity Ambient--><g id="elem_Ambient"><rect fill="#F1F1F1" height="22.4883" rx="2.5" ry="2.5" style="stroke:#181818;stroke-width:0.5;" width="78" x="385" y="50.5"/><text fill="#000000" font-family="sans-serif" font-size="14" lengthAdjust="spacing" textLength="58" x="395" y="67.0352">Ambient</text></g><!--MD5=[c94ef79fa2f84ee56c6010ed59381bc0]
entity Mac--><g id="elem_Mac"><rect fill="#F1F1F1" height="22.4883" rx="2.5" ry="2.5" style="stroke:#181818;stroke-width:0.5;" width="47" x="520.5" y="50.5"/><text fill="#000000" font-family="sans-serif" font-size="14" lengthAdjust="spacing" textLength="27" x="530.5" y="67.0352">Mac</text></g><!--MD5=[35c4633dee5c1257ebd7463557abe5cf]
link KY03 to ESP32--><g id="link_KY03_ESP32"><path d="M139.09,61.5 C158.01,61.5 179.13,61.5 198.49,61.5 " fill="none" id="KY03-to-ESP32" style="stroke:#181818;stroke-width:1.0;"/><polygon fill="#181818" points="203.9,61.5,194.9,57.5,198.9,61.5,194.9,65.5,203.9,61.5" style="stroke:#181818;stroke-width:1.0;"/><text fill="#000000" font-family="sans-serif" font-size="13" lengthAdjust="spacing" textLength="28" x="157.5" y="55.0684">ADC</text></g><!--MD5=[0d9c703c091d40258840488ae7a920a6]
link ESP32 to Ambient--><g id="link_ESP32_Ambient"><path d="M322.04,61.5 C340.91,61.5 361.47,61.5 379.16,61.5 " fill="none" id="ESP32-to-Ambient" style="stroke:#181818;stroke-width:1.0;"/><polygon fill="#181818" points="384.55,61.5,375.55,57.5,379.55,61.5,375.55,65.5,384.55,61.5" style="stroke:#181818;stroke-width:1.0;"/><text fill="#000000" font-family="sans-serif" font-size="13" lengthAdjust="spacing" textLength="26" x="340.5" y="55.0684">http</text></g><!--MD5=[57ffcbbcfec59d91dd6208e639cb815e]
link Ambient to Mac--><g id="link_Ambient_Mac"><path d="M463.29,61.5 C480.24,61.5 499.7,61.5 515.27,61.5 " fill="none" id="Ambient-to-Mac" style="stroke:#181818;stroke-width:1.0;"/><polygon fill="#181818" points="520.39,61.5,511.39,57.5,515.39,61.5,511.39,65.5,520.39,61.5" style="stroke:#181818;stroke-width:1.0;"/><text fill="#000000" font-family="sans-serif" font-size="13" lengthAdjust="spacing" textLength="21" x="481.25" y="55.0684">csv</text></g><!--MD5=[c9447c6e7438be42edd8208b0ba7714f]
@startuml
card ガジェット {
card KY03 as "音声センサー
KKHMF KY-03"
card ESP32 as "ESP32開発基板"
}
card Ambient
card Mac
KY03 -> ESP32 : ADC
ESP32 -> Ambient : http
Ambient -> Mac : csv
@enduml

PlantUML version 1.2022.6(Wed Jun 22 02:34:49 JST 2022)
(GPL source distribution)
Java Runtime: OpenJDK Runtime Environment
JVM: OpenJDK 64-Bit Server VM
Default Encoding: UTF-8
Language: ja
Country: JP
--></g></svg>